<?xml version="1.0" encoding="UTF-8" standalone="no"?>
<svg
   xmlns:dc="http://purl.org/dc/elements/1.1/"
   xmlns:cc="http://creativecommons.org/ns#"
   xmlns:rdf="http://www.w3.org/1999/02/22-rdf-syntax-ns#"
   xmlns:svg="http://www.w3.org/2000/svg"
   xmlns="http://www.w3.org/2000/svg"
   xmlns:sodipodi="http://sodipodi.sourceforge.net/DTD/sodipodi-0.dtd"
   xmlns:inkscape="http://www.inkscape.org/namespaces/inkscape"
   version="1.1"
   x="0px"
   y="0px"
   viewBox="0 0 64.862564 59.5"
   xml:space="preserve"
   id="svg8"
   sodipodi:docname="icon_heart.svg"
   inkscape:version="0.92.1 r15371"
   width="64.862564"
   height="59.5"><metadata
     id="metadata14"><rdf:RDF><cc:Work
         rdf:about=""><dc:format>image/svg+xml</dc:format><dc:type
           rdf:resource="http://purl.org/dc/dcmitype/StillImage" /></cc:Work></rdf:RDF></metadata><defs
     id="defs12" /><sodipodi:namedview
     pagecolor="#ffffff"
     bordercolor="#666666"
     borderopacity="1"
     objecttolerance="10"
     gridtolerance="10"
     guidetolerance="10"
     inkscape:pageopacity="0"
     inkscape:pageshadow="2"
     inkscape:window-width="1855"
     inkscape:window-height="1056"
     id="namedview10"
     showgrid="false"
     inkscape:zoom="1.888"
     inkscape:cx="-56.797881"
     inkscape:cy="17.3"
     inkscape:window-x="65"
     inkscape:window-y="24"
     inkscape:window-maximized="1"
     inkscape:current-layer="svg8" /><path
     d="m 18.95,5 c 3.7,0 7.2,1.4 9.8,4 0.1,0.1 0.2,0.2 0.3,0.3 l 3.6,3.7 3.1,-3.1 0.5,-0.5 c 2.6,-2.6 6.1,-4.1 9.8,-4.1 3.7,0 7.2,1.5 9.9,4.1 5.4,5.4 5.4,14.3 0,19.7 l -0.1,0.1 v 0 0 l -0.5,0.5 -22.7,22.7 -19.8,-19.8 0.1,-0.1 -3.7,-3.5 c -0.1,-0.1 -0.2,-0.2 -0.3,-0.3 -2.6,-2.6 -4,-6.1 -4,-9.8 0,-3.7 1.5,-7.2 4.1,-9.9 2.6,-2.6 6.1,-4 9.9,-4 m 0,-5 c -4.9,0 -9.7,1.9 -13.4,5.6 -7.4,7.4 -7.4,19.4 0,26.8 0.1,0.1 0.2,0.2 0.3,0.3 v 0 l 26.8,26.8 26.7,-26.8 c 0,0 0,0 0,0 0,0 0,0 0,0 v 0 0 c 7.4,-7.4 7.3,-19.4 0,-26.8 -3.7,-3.7 -8.5,-5.6 -13.4,-5.6 -4.8,0 -9.7,1.8 -13.4,5.5 v 0 0 C 32.45,5.7 32.35,5.6 32.25,5.5 28.65,1.8 23.75,0 18.95,0 Z"
     id="path2"
     inkscape:connector-curvature="0" /></svg>